<svg className={"container mx-auto"} width="196" height="37" viewBox="0 0 196 37"
                 fill="none" xmlns="http://www.w3.org/2000/svg">
                <path
                    d="M68.7471 23.6055L71.4814 10.2266H74.5454L70.4438 28H67.4897L64.1084 15.0239L60.6538 28H57.6875L53.5859 10.2266H56.6499L59.4087 23.5811L62.8022 10.2266H65.3901L68.7471 23.6055ZM75.5708 21.2739C75.5708 19.98 75.8271 18.8162 76.3398 17.7827C76.8525 16.741 77.5728 15.9435 78.5005 15.3901C79.4282 14.8286 80.4943 14.5479 81.6987 14.5479C83.481 14.5479 84.9255 15.1216 86.0322 16.269C87.1471 17.4165 87.7493 18.9383 87.8389 20.8345L87.8511 21.5303C87.8511 22.8324 87.5988 23.9961 87.0942 25.0215C86.5978 26.0469 85.8817 26.8403 84.9458 27.4019C84.0181 27.9634 82.9438 28.2441 81.7231 28.2441C79.8595 28.2441 78.3662 27.6257 77.2432 26.3887C76.1283 25.1436 75.5708 23.4875 75.5708 21.4204V21.2739ZM78.5371 21.5303C78.5371 22.8893 78.8179 23.9554 79.3794 24.7285C79.9409 25.4935 80.7222 25.876 81.7231 25.876C82.7241 25.876 83.5013 25.4854 84.0547 24.7041C84.6162 23.9229 84.897 22.7795 84.897 21.2739C84.897 19.9393 84.6081 18.8813 84.0303 18.1001C83.4606 17.3188 82.6834 16.9282 81.6987 16.9282C80.7303 16.9282 79.9613 17.3148 79.3916 18.0879C78.8219 18.8529 78.5371 20.0003 78.5371 21.5303ZM97.2749 17.502C96.8843 17.4368 96.4814 17.4043 96.0664 17.4043C94.7074 17.4043 93.7918 17.9251 93.3198 18.9668V28H90.3535V14.792H93.1855L93.2588 16.269C93.9749 15.1216 94.9678 14.5479 96.2373 14.5479C96.6605 14.5479 97.0104 14.6048 97.2871 14.7188L97.2749 17.502ZM103.439 22.3359L102.121 23.6909V28H99.1548V9.25H102.121V20.0654L103.049 18.9058L106.699 14.792H110.263L105.356 20.2974L110.788 28H107.358L103.439 22.3359ZM120.761 11.606C119.931 11.492 119.215 11.4351 118.613 11.4351C117.018 11.4351 116.22 12.1838 116.22 13.6812V14.792H118.906V16.9893H116.22V28H113.254V16.9893H111.24V14.792H113.254V13.6079C113.262 12.1187 113.701 10.9793 114.572 10.1899C115.451 9.39242 116.688 8.99365 118.283 8.99365C119.276 8.99365 121.091 9.18896 123.728 9.57959V28H120.761V11.606ZM126.45 21.2739C126.45 19.98 126.706 18.8162 127.219 17.7827C127.731 16.741 128.452 15.9435 129.379 15.3901C130.307 14.8286 131.373 14.5479 132.578 14.5479C134.36 14.5479 135.804 15.1216 136.911 16.269C138.026 17.4165 138.628 18.9383 138.718 20.8345L138.73 21.5303C138.73 22.8324 138.478 23.9961 137.973 25.0215C137.477 26.0469 136.761 26.8403 135.825 27.4019C134.897 27.9634 133.823 28.2441 132.602 28.2441C130.738 28.2441 129.245 27.6257 128.122 26.3887C127.007 25.1436 126.45 23.4875 126.45 21.4204V21.2739ZM129.416 21.5303C129.416 22.8893 129.697 23.9554 130.258 24.7285C130.82 25.4935 131.601 25.876 132.602 25.876C133.603 25.876 134.38 25.4854 134.934 24.7041C135.495 23.9229 135.776 22.7795 135.776 21.2739C135.776 19.9393 135.487 18.8813 134.909 18.1001C134.34 17.3188 133.562 16.9282 132.578 16.9282C131.609 16.9282 130.84 17.3148 130.271 18.0879C129.701 18.8529 129.416 20.0003 129.416 21.5303ZM152.841 23.9106L154.941 14.792H157.834L154.233 28H151.792L148.959 18.9302L146.176 28H143.735L140.122 14.792H143.015L145.151 23.813L147.861 14.792H150.095L152.841 23.9106Z"
                    fill="#313E47"/>
                <path fill-rule="evenodd" clip-rule="evenodd"
                      d="M35.3747   4.60635C35.3747 7.15037 33.1053 9.21271 30.3059 9.21271C27.5065 9.21271 25.2371 7.15037 25.2371 4.60635C25.2371 2.06234 27.5065 0 30.3059 0C33.1053 0 35.3747 2.06234 35.3747 4.60635ZM43.9998 17.9354C43.9998 20.4794 41.7304 22.5418 38.931 22.5418C36.1316 22.5418 33.8622 20.4794 33.8622 17.9354C33.8622 15.3914 36.1316 13.3291 38.931 13.3291C41.7304 13.3291 43.9998 15.3914 43.9998 17.9354ZM30.7369 35.871C33.5364 35.871 35.8057 33.8087 35.8057 31.2647C35.8057 28.7206 33.5364 26.6583 30.7369 26.6583C27.9375 26.6583 25.6681 28.7206 25.6681 31.2647C25.6681 33.8087 27.9375 35.871 30.7369 35.871ZM10.1376 17.9354C10.1376 20.4794 7.86822 22.5418 5.0688 22.5418C2.26938 22.5418 0 20.4794 0 17.9354C0 15.3914 2.26938 13.3291 5.0688 13.3291C7.86822 13.3291 10.1376 15.3914 10.1376 17.9354ZM16.384 17.9349C16.384 17.6355 16.4141 17.3424 16.4719 17.0581L16.4585 17.0656C16.3681 13.9978 14.6991 11.0048 11.6816 9.14696C11.4139 8.98211 11.141 8.82958 10.8638 8.68923L10.8239 8.62002C8.5379 7.1789 7.93542 4.33801 9.48316 2.24893C11.0416 0.145445 14.1898 -0.399279 16.5149 1.03225C18.085 1.9989 18.8783 3.6195 18.7481 5.21778C18.8623 8.20383 20.2652 11.1214 22.7991 13.2427C25.1531 13.709 26.9211 15.601 26.9525 17.8733C26.9926 18.8507 26.7057 19.8461 26.061 20.7164C25.4232 21.5773 24.5299 22.1877 23.5335 22.5214C20.8981 24.3083 19.1917 27.1639 19.1917 30.3817C19.1917 30.6751 19.2059 30.9654 19.2336 31.2522L19.1907 31.3243C19.1553 33.8407 16.8997 35.8706 14.1223 35.8706C11.3229 35.8706 9.0535 33.8083 9.0535 31.2643C9.0535 29.54 10.096 28.037 11.6395 27.2474C14.3349 25.4741 16.2216 22.748 16.7015 19.6129C16.5399 19.2039 16.4395 18.7772 16.403 18.3451C16.3904 18.2099 16.384 18.0731 16.384 17.9349Z"
                      fill="#04A6FB"/>
            </svg>